<?xml version="1.0" encoding="UTF-8"?>
<svg xmlns="http://www.w3.org/2000/svg" viewBox="0 0 20 20">
	<defs>
		<style>
			@media (prefers-color-scheme: light) { :root { filter: none; } }
			@media (prefers-color-scheme: dark) { :root { filter: invert(100%); } }
			
			.c {
			fill: #000;
			}
		</style>
	</defs>
	 <path class="c" d="M10,0C4.5,0,0,4.5,0,10s4.5,10,10,10,10-4.5,10-10S15.5,0,10,0ZM3.5,5.3c.1-.2.3-.4.5-.6,2.9-3.3,8-3.7,11.3-.8.2.1.2.4.1.6-.1.4-.3.7-.5,1-1.6,2.3-4.7,2.9-6.9,1.3-1.1-.8-2.6-1.1-3.9-.7-.1,0-.3,0-.4,0-.2-.2-.3-.5-.1-.7ZM7.2,9.5c-1.6,1.6-2.1,4.1-1.4,6.2,0,.2,0,.3,0,.5-.2.2-.5.3-.7,0-1.5-1.2-2.5-2.8-2.9-4.7-.2-.8,0-1.6.5-2.3.9-1.4,2.8-1.7,4.2-.8.1,0,.2.1.3.2,0,0,0,0,0,0,.2.2.2.5,0,.7ZM13,17.4c-.4.2-.8.2-1.2.3-2.2.2-4.1-1.5-4.3-3.7-.2-2.2,1.5-4.1,3.7-4.3,2.1-.1,4-1.2,5.3-3,0,0,.1-.1.2-.2.3-.1.5,0,.7.3,0,0,0,.1,0,.2,1.6,4.1-.3,8.8-4.4,10.4Z"/>
</svg>
